<mxfile host="www.draw.io" modified="2020-04-06T16:22:35.205Z" agent="5.0 (Macintosh; Intel Mac OS X 10_15_1) AppleWebKit/537.36 (KHTML, like Gecko) Chrome/80.0.3987.149 Safari/537.36" etag="6dPKb7YYzFJG1Yp0Z01x" version="12.9.8" type="github" pages="2">
  <diagram id="edJ9AZm4-Rsh3tBSnPvG" name="01 - note">
    <mxGraphModel dx="751" dy="370" grid="1" gridSize="10" guides="1" tooltips="1" connect="1" arrows="1" fold="1" page="1" pageScale="1" pageWidth="1920" pageHeight="1200" math="0" shadow="0">
      <root>
        <mxCell id="mCJGzE72MrZ9HBQ7w_dw-0" />
        <mxCell id="mCJGzE72MrZ9HBQ7w_dw-1" parent="mCJGzE72MrZ9HBQ7w_dw-0" />
        <mxCell id="mCJGzE72MrZ9HBQ7w_dw-4" style="edgeStyle=orthogonalEdgeStyle;rounded=0;orthogonalLoop=1;jettySize=auto;html=1;exitX=0.5;exitY=1;exitDx=0;exitDy=0;fontSize=17;" edge="1" parent="mCJGzE72MrZ9HBQ7w_dw-1" source="mCJGzE72MrZ9HBQ7w_dw-2" target="mCJGzE72MrZ9HBQ7w_dw-3">
          <mxGeometry relative="1" as="geometry" />
        </mxCell>
        <mxCell id="mCJGzE72MrZ9HBQ7w_dw-2" value="We are going to start building out the &lt;i style=&quot;font-size: 17px;&quot;&gt;authentication&lt;/i&gt;&amp;nbsp;piece of the React app in this section" style="rounded=0;whiteSpace=wrap;html=1;fillColor=#dae8fc;strokeColor=#6c8ebf;fontStyle=1;fontSize=17;" vertex="1" parent="mCJGzE72MrZ9HBQ7w_dw-1">
          <mxGeometry x="540" y="140" width="470" height="80" as="geometry" />
        </mxCell>
        <mxCell id="mCJGzE72MrZ9HBQ7w_dw-6" style="edgeStyle=orthogonalEdgeStyle;rounded=0;orthogonalLoop=1;jettySize=auto;html=1;exitX=0.5;exitY=1;exitDx=0;exitDy=0;fontSize=17;" edge="1" parent="mCJGzE72MrZ9HBQ7w_dw-1" source="mCJGzE72MrZ9HBQ7w_dw-3" target="mCJGzE72MrZ9HBQ7w_dw-5">
          <mxGeometry relative="1" as="geometry" />
        </mxCell>
        <mxCell id="mCJGzE72MrZ9HBQ7w_dw-3" value="Don&#39;t want to build the React app?&amp;nbsp; No problem!" style="rounded=0;whiteSpace=wrap;html=1;fillColor=#dae8fc;strokeColor=#6c8ebf;fontStyle=1;fontSize=17;" vertex="1" parent="mCJGzE72MrZ9HBQ7w_dw-1">
          <mxGeometry x="540" y="250" width="470" height="80" as="geometry" />
        </mxCell>
        <mxCell id="mCJGzE72MrZ9HBQ7w_dw-5" value="Skip to the end of this section and download the zip file.&amp;nbsp; &lt;i&gt;&lt;font style=&quot;font-size: 22px&quot;&gt;Make sure you read the instructions in that lecture!!!!&lt;/font&gt;&lt;/i&gt;" style="rounded=0;whiteSpace=wrap;html=1;fillColor=#dae8fc;strokeColor=#6c8ebf;fontStyle=1;fontSize=17;" vertex="1" parent="mCJGzE72MrZ9HBQ7w_dw-1">
          <mxGeometry x="540" y="370" width="470" height="90" as="geometry" />
        </mxCell>
      </root>
    </mxGraphModel>
  </diagram>
  <diagram id="FHGRCvATMDRIMBuvAGX3" name="01 - client">
    <mxGraphModel dx="1036" dy="510" grid="1" gridSize="10" guides="1" tooltips="1" connect="1" arrows="1" fold="1" page="1" pageScale="1" pageWidth="1920" pageHeight="1200" math="0" shadow="0">
      <root>
        <mxCell id="0" />
        <mxCell id="1" parent="0" />
        <mxCell id="qvBDE1QiEwIdOmbbvgl6-10" value="" style="strokeWidth=1;shadow=0;dashed=0;align=center;html=1;shape=mxgraph.mockup.containers.browserWindow;rSize=0;strokeColor=#666666;strokeColor2=#008cff;strokeColor3=#c4c4c4;mainText=,;recursiveResize=0;fontSize=16;" vertex="1" parent="1">
          <mxGeometry x="510" y="190" width="450" height="350" as="geometry" />
        </mxCell>
        <mxCell id="qvBDE1QiEwIdOmbbvgl6-11" value="Page 1" style="strokeWidth=1;shadow=0;dashed=0;align=center;html=1;shape=mxgraph.mockup.containers.anchor;fontSize=17;fontColor=#666666;align=left;" vertex="1" parent="qvBDE1QiEwIdOmbbvgl6-10">
          <mxGeometry x="60" y="12" width="110" height="26" as="geometry" />
        </mxCell>
        <mxCell id="qvBDE1QiEwIdOmbbvgl6-12" value="" style="strokeWidth=1;shadow=0;dashed=0;align=center;html=1;shape=mxgraph.mockup.containers.anchor;rSize=0;fontSize=17;fontColor=#666666;align=left;" vertex="1" parent="qvBDE1QiEwIdOmbbvgl6-10">
          <mxGeometry x="130" y="60" width="250" height="26" as="geometry" />
        </mxCell>
        <mxCell id="qvBDE1QiEwIdOmbbvgl6-13" value="" style="rounded=0;whiteSpace=wrap;html=1;fontSize=16;" vertex="1" parent="qvBDE1QiEwIdOmbbvgl6-10">
          <mxGeometry y="110" width="450" height="40" as="geometry" />
        </mxCell>
        <mxCell id="qvBDE1QiEwIdOmbbvgl6-14" value="GitTix" style="text;html=1;strokeColor=none;fillColor=none;align=center;verticalAlign=middle;whiteSpace=wrap;rounded=0;fontSize=16;" vertex="1" parent="qvBDE1QiEwIdOmbbvgl6-10">
          <mxGeometry x="20" y="120" width="40" height="20" as="geometry" />
        </mxCell>
        <mxCell id="qvBDE1QiEwIdOmbbvgl6-15" value="Sign In" style="text;html=1;strokeColor=none;fillColor=none;align=center;verticalAlign=middle;whiteSpace=wrap;rounded=0;fontSize=16;" vertex="1" parent="qvBDE1QiEwIdOmbbvgl6-10">
          <mxGeometry x="360" y="120" width="70" height="20" as="geometry" />
        </mxCell>
        <mxCell id="qvBDE1QiEwIdOmbbvgl6-16" value="Sign Up" style="text;html=1;strokeColor=none;fillColor=none;align=center;verticalAlign=middle;whiteSpace=wrap;rounded=0;fontSize=16;" vertex="1" parent="qvBDE1QiEwIdOmbbvgl6-10">
          <mxGeometry x="280" y="120" width="70" height="20" as="geometry" />
        </mxCell>
        <mxCell id="qvBDE1QiEwIdOmbbvgl6-17" value="Email" style="text;html=1;strokeColor=none;fillColor=none;align=left;verticalAlign=middle;whiteSpace=wrap;rounded=0;fontSize=14;fontStyle=1" vertex="1" parent="qvBDE1QiEwIdOmbbvgl6-10">
          <mxGeometry x="20" y="190" width="40" height="20" as="geometry" />
        </mxCell>
        <mxCell id="qvBDE1QiEwIdOmbbvgl6-18" value="Password" style="text;html=1;strokeColor=none;fillColor=none;align=left;verticalAlign=middle;whiteSpace=wrap;rounded=0;fontSize=14;fontStyle=1" vertex="1" parent="qvBDE1QiEwIdOmbbvgl6-10">
          <mxGeometry x="20" y="245" width="40" height="20" as="geometry" />
        </mxCell>
        <mxCell id="qvBDE1QiEwIdOmbbvgl6-19" value="" style="rounded=0;whiteSpace=wrap;html=1;fontSize=14;align=left;" vertex="1" parent="qvBDE1QiEwIdOmbbvgl6-10">
          <mxGeometry x="20" y="210" width="190" height="25" as="geometry" />
        </mxCell>
        <mxCell id="qvBDE1QiEwIdOmbbvgl6-20" value="" style="rounded=0;whiteSpace=wrap;html=1;fontSize=14;align=left;" vertex="1" parent="qvBDE1QiEwIdOmbbvgl6-10">
          <mxGeometry x="20" y="265" width="190" height="25" as="geometry" />
        </mxCell>
        <mxCell id="qvBDE1QiEwIdOmbbvgl6-21" value="Sign Up" style="text;html=1;strokeColor=none;fillColor=none;align=left;verticalAlign=middle;whiteSpace=wrap;rounded=0;fontSize=19;fontStyle=1" vertex="1" parent="qvBDE1QiEwIdOmbbvgl6-10">
          <mxGeometry x="20" y="155" width="170" height="35" as="geometry" />
        </mxCell>
        <mxCell id="qvBDE1QiEwIdOmbbvgl6-22" value="Submit" style="rounded=1;whiteSpace=wrap;html=1;fontSize=14;align=center;fontStyle=1" vertex="1" parent="qvBDE1QiEwIdOmbbvgl6-10">
          <mxGeometry x="20" y="300" width="90" height="30" as="geometry" />
        </mxCell>
        <mxCell id="qvBDE1QiEwIdOmbbvgl6-23" value="" style="strokeWidth=1;shadow=0;dashed=0;align=center;html=1;shape=mxgraph.mockup.containers.browserWindow;rSize=0;strokeColor=#666666;strokeColor2=#008cff;strokeColor3=#c4c4c4;mainText=,;recursiveResize=0;fontSize=16;" vertex="1" parent="1">
          <mxGeometry x="980" y="190" width="450" height="350" as="geometry" />
        </mxCell>
        <mxCell id="qvBDE1QiEwIdOmbbvgl6-24" value="Page 1" style="strokeWidth=1;shadow=0;dashed=0;align=center;html=1;shape=mxgraph.mockup.containers.anchor;fontSize=17;fontColor=#666666;align=left;" vertex="1" parent="qvBDE1QiEwIdOmbbvgl6-23">
          <mxGeometry x="60" y="12" width="110" height="26" as="geometry" />
        </mxCell>
        <mxCell id="qvBDE1QiEwIdOmbbvgl6-25" value="" style="strokeWidth=1;shadow=0;dashed=0;align=center;html=1;shape=mxgraph.mockup.containers.anchor;rSize=0;fontSize=17;fontColor=#666666;align=left;" vertex="1" parent="qvBDE1QiEwIdOmbbvgl6-23">
          <mxGeometry x="130" y="60" width="250" height="26" as="geometry" />
        </mxCell>
        <mxCell id="qvBDE1QiEwIdOmbbvgl6-26" value="" style="rounded=0;whiteSpace=wrap;html=1;fontSize=16;" vertex="1" parent="qvBDE1QiEwIdOmbbvgl6-23">
          <mxGeometry y="110" width="450" height="40" as="geometry" />
        </mxCell>
        <mxCell id="qvBDE1QiEwIdOmbbvgl6-27" value="GitTix" style="text;html=1;strokeColor=none;fillColor=none;align=center;verticalAlign=middle;whiteSpace=wrap;rounded=0;fontSize=16;" vertex="1" parent="qvBDE1QiEwIdOmbbvgl6-23">
          <mxGeometry x="20" y="120" width="40" height="20" as="geometry" />
        </mxCell>
        <mxCell id="qvBDE1QiEwIdOmbbvgl6-28" value="Sign In" style="text;html=1;strokeColor=none;fillColor=none;align=center;verticalAlign=middle;whiteSpace=wrap;rounded=0;fontSize=16;" vertex="1" parent="qvBDE1QiEwIdOmbbvgl6-23">
          <mxGeometry x="360" y="120" width="70" height="20" as="geometry" />
        </mxCell>
        <mxCell id="qvBDE1QiEwIdOmbbvgl6-29" value="Sign Up" style="text;html=1;strokeColor=none;fillColor=none;align=center;verticalAlign=middle;whiteSpace=wrap;rounded=0;fontSize=16;" vertex="1" parent="qvBDE1QiEwIdOmbbvgl6-23">
          <mxGeometry x="280" y="120" width="70" height="20" as="geometry" />
        </mxCell>
        <mxCell id="qvBDE1QiEwIdOmbbvgl6-30" value="Email" style="text;html=1;strokeColor=none;fillColor=none;align=left;verticalAlign=middle;whiteSpace=wrap;rounded=0;fontSize=14;fontStyle=1" vertex="1" parent="qvBDE1QiEwIdOmbbvgl6-23">
          <mxGeometry x="20" y="190" width="40" height="20" as="geometry" />
        </mxCell>
        <mxCell id="qvBDE1QiEwIdOmbbvgl6-31" value="Password" style="text;html=1;strokeColor=none;fillColor=none;align=left;verticalAlign=middle;whiteSpace=wrap;rounded=0;fontSize=14;fontStyle=1" vertex="1" parent="qvBDE1QiEwIdOmbbvgl6-23">
          <mxGeometry x="20" y="245" width="40" height="20" as="geometry" />
        </mxCell>
        <mxCell id="qvBDE1QiEwIdOmbbvgl6-32" value="" style="rounded=0;whiteSpace=wrap;html=1;fontSize=14;align=left;" vertex="1" parent="qvBDE1QiEwIdOmbbvgl6-23">
          <mxGeometry x="20" y="210" width="190" height="25" as="geometry" />
        </mxCell>
        <mxCell id="qvBDE1QiEwIdOmbbvgl6-33" value="" style="rounded=0;whiteSpace=wrap;html=1;fontSize=14;align=left;" vertex="1" parent="qvBDE1QiEwIdOmbbvgl6-23">
          <mxGeometry x="20" y="265" width="190" height="25" as="geometry" />
        </mxCell>
        <mxCell id="qvBDE1QiEwIdOmbbvgl6-34" value="Sign In" style="text;html=1;strokeColor=none;fillColor=none;align=left;verticalAlign=middle;whiteSpace=wrap;rounded=0;fontSize=19;fontStyle=1" vertex="1" parent="qvBDE1QiEwIdOmbbvgl6-23">
          <mxGeometry x="20" y="155" width="170" height="35" as="geometry" />
        </mxCell>
        <mxCell id="qvBDE1QiEwIdOmbbvgl6-35" value="Submit" style="rounded=1;whiteSpace=wrap;html=1;fontSize=14;align=center;fontStyle=1" vertex="1" parent="qvBDE1QiEwIdOmbbvgl6-23">
          <mxGeometry x="20" y="300" width="90" height="30" as="geometry" />
        </mxCell>
        <mxCell id="qvBDE1QiEwIdOmbbvgl6-36" value="" style="strokeWidth=1;shadow=0;dashed=0;align=center;html=1;shape=mxgraph.mockup.containers.browserWindow;rSize=0;strokeColor=#666666;strokeColor2=#008cff;strokeColor3=#c4c4c4;mainText=,;recursiveResize=0;fontSize=16;" vertex="1" parent="1">
          <mxGeometry x="1450" y="190" width="450" height="350" as="geometry" />
        </mxCell>
        <mxCell id="qvBDE1QiEwIdOmbbvgl6-37" value="Page 1" style="strokeWidth=1;shadow=0;dashed=0;align=center;html=1;shape=mxgraph.mockup.containers.anchor;fontSize=17;fontColor=#666666;align=left;" vertex="1" parent="qvBDE1QiEwIdOmbbvgl6-36">
          <mxGeometry x="60" y="12" width="110" height="26" as="geometry" />
        </mxCell>
        <mxCell id="qvBDE1QiEwIdOmbbvgl6-38" value="" style="strokeWidth=1;shadow=0;dashed=0;align=center;html=1;shape=mxgraph.mockup.containers.anchor;rSize=0;fontSize=17;fontColor=#666666;align=left;" vertex="1" parent="qvBDE1QiEwIdOmbbvgl6-36">
          <mxGeometry x="130" y="60" width="250" height="26" as="geometry" />
        </mxCell>
        <mxCell id="qvBDE1QiEwIdOmbbvgl6-39" value="" style="rounded=0;whiteSpace=wrap;html=1;fontSize=16;" vertex="1" parent="qvBDE1QiEwIdOmbbvgl6-36">
          <mxGeometry y="110" width="450" height="40" as="geometry" />
        </mxCell>
        <mxCell id="qvBDE1QiEwIdOmbbvgl6-40" value="GitTix" style="text;html=1;strokeColor=none;fillColor=none;align=center;verticalAlign=middle;whiteSpace=wrap;rounded=0;fontSize=16;" vertex="1" parent="qvBDE1QiEwIdOmbbvgl6-36">
          <mxGeometry x="20" y="120" width="40" height="20" as="geometry" />
        </mxCell>
        <mxCell id="qvBDE1QiEwIdOmbbvgl6-41" value="Sign Out" style="text;html=1;strokeColor=none;fillColor=none;align=center;verticalAlign=middle;whiteSpace=wrap;rounded=0;fontSize=16;" vertex="1" parent="qvBDE1QiEwIdOmbbvgl6-36">
          <mxGeometry x="360" y="120" width="70" height="20" as="geometry" />
        </mxCell>
        <mxCell id="qvBDE1QiEwIdOmbbvgl6-43" value="You are signed in" style="text;html=1;strokeColor=none;fillColor=none;align=left;verticalAlign=middle;whiteSpace=wrap;rounded=0;fontSize=19;fontStyle=1" vertex="1" parent="qvBDE1QiEwIdOmbbvgl6-36">
          <mxGeometry x="20" y="165" width="170" height="20" as="geometry" />
        </mxCell>
        <mxCell id="qvBDE1QiEwIdOmbbvgl6-93" value="" style="strokeWidth=1;shadow=0;dashed=0;align=center;html=1;shape=mxgraph.mockup.containers.browserWindow;rSize=0;strokeColor=#666666;strokeColor2=#008cff;strokeColor3=#c4c4c4;mainText=,;recursiveResize=0;fontSize=16;" vertex="1" parent="1">
          <mxGeometry x="50" y="190" width="450" height="350" as="geometry" />
        </mxCell>
        <mxCell id="qvBDE1QiEwIdOmbbvgl6-94" value="Page 1" style="strokeWidth=1;shadow=0;dashed=0;align=center;html=1;shape=mxgraph.mockup.containers.anchor;fontSize=17;fontColor=#666666;align=left;" vertex="1" parent="qvBDE1QiEwIdOmbbvgl6-93">
          <mxGeometry x="60" y="12" width="110" height="26" as="geometry" />
        </mxCell>
        <mxCell id="qvBDE1QiEwIdOmbbvgl6-95" value="" style="strokeWidth=1;shadow=0;dashed=0;align=center;html=1;shape=mxgraph.mockup.containers.anchor;rSize=0;fontSize=17;fontColor=#666666;align=left;" vertex="1" parent="qvBDE1QiEwIdOmbbvgl6-93">
          <mxGeometry x="130" y="60" width="250" height="26" as="geometry" />
        </mxCell>
        <mxCell id="qvBDE1QiEwIdOmbbvgl6-96" value="" style="rounded=0;whiteSpace=wrap;html=1;fontSize=16;" vertex="1" parent="qvBDE1QiEwIdOmbbvgl6-93">
          <mxGeometry y="110" width="450" height="40" as="geometry" />
        </mxCell>
        <mxCell id="qvBDE1QiEwIdOmbbvgl6-97" value="GitTix" style="text;html=1;strokeColor=none;fillColor=none;align=center;verticalAlign=middle;whiteSpace=wrap;rounded=0;fontSize=16;" vertex="1" parent="qvBDE1QiEwIdOmbbvgl6-93">
          <mxGeometry x="20" y="120" width="40" height="20" as="geometry" />
        </mxCell>
        <mxCell id="qvBDE1QiEwIdOmbbvgl6-98" value="Sign In" style="text;html=1;strokeColor=none;fillColor=none;align=center;verticalAlign=middle;whiteSpace=wrap;rounded=0;fontSize=16;" vertex="1" parent="qvBDE1QiEwIdOmbbvgl6-93">
          <mxGeometry x="360" y="120" width="70" height="20" as="geometry" />
        </mxCell>
        <mxCell id="qvBDE1QiEwIdOmbbvgl6-99" value="Sign Up" style="text;html=1;strokeColor=none;fillColor=none;align=center;verticalAlign=middle;whiteSpace=wrap;rounded=0;fontSize=16;" vertex="1" parent="qvBDE1QiEwIdOmbbvgl6-93">
          <mxGeometry x="280" y="120" width="70" height="20" as="geometry" />
        </mxCell>
        <mxCell id="qvBDE1QiEwIdOmbbvgl6-104" value="You are not signed in" style="text;html=1;strokeColor=none;fillColor=none;align=left;verticalAlign=middle;whiteSpace=wrap;rounded=0;fontSize=19;fontStyle=1" vertex="1" parent="qvBDE1QiEwIdOmbbvgl6-93">
          <mxGeometry x="20" y="155" width="270" height="35" as="geometry" />
        </mxCell>
      </root>
    </mxGraphModel>
  </diagram>
</mxfile>
